<svg width="54" height="59" viewBox="0 0 54 59" fill="none" xmlns="http://www.w3.org/2000/svg">
<path d="M25.8606 35.8439H30.2874V37.1058H20.1788V35.8439H24.6056V31.7562C24.6056 31.702 24.6056 31.6478 24.6056 31.5936V27.6608H20.1788V26.3989H25.8683V28.2957C26.8768 27.0879 28.3319 26.3989 29.9333 26.3989H30.2951V27.6608H29.9333C27.7237 27.6608 25.9375 29.395 25.8683 31.6169V35.8439H25.8606Z" fill="white"/>
<path d="M12.4645 26.3992H7.96834V27.6611H12.3952V37.1061H13.6501V27.6611H18.077V26.3992H13.7194C14.0274 24.4483 15.7596 22.9387 17.7382 22.9387H18.1001V21.6768H17.7382C15.0744 21.6768 12.7801 23.7438 12.4645 26.3992Z" fill="white"/>
<path d="M39.7263 31.1062H35.7767C34.8298 31.1062 34.0522 30.332 34.0522 29.372C34.0522 28.4198 34.8221 27.6379 35.769 27.6379L41.3199 27.6456V26.3837L35.769 26.376C34.1292 26.376 32.7896 27.7153 32.7896 29.372C32.7896 31.021 34.1215 32.3681 35.769 32.3681H39.7263C40.6732 32.3681 41.4508 33.1423 41.4508 34.1023C41.4508 35.0545 40.6809 35.8364 39.7263 35.8364H32.6818V37.0983H39.7263C41.3661 37.0983 42.7057 35.759 42.7057 34.1023C42.698 32.4455 41.3661 31.1062 39.7263 31.1062Z" fill="white"/>
<path d="M53.4841 35.8443C51.2438 35.8443 49.4191 34.0095 49.4191 31.7566V27.6612H53.8152V26.3993H49.4114V22.4355H48.1565V26.3993H43.6989V27.6612H48.1565V31.7566C48.1565 34.7062 50.5432 37.1062 53.4764 37.1062H53.8383V35.8443H53.4841Z" fill="white"/>
<path d="M28.2472 2.26067H28.4859V1.13037H28.2472C12.7493 1.13037 0.146271 13.8036 0.146271 29.3878C0.146271 44.972 12.7493 57.6453 28.2472 57.6453H28.4859V56.515H28.2472C13.373 56.515 1.27031 44.3527 1.27031 29.3878C1.27031 14.423 13.373 2.26067 28.2472 2.26067Z" fill="#F49589"/>
</svg>
