<svg width="117" height="104" viewBox="0 0 117 104" fill="none" xmlns="http://www.w3.org/2000/svg">
<path d="M10.4565 25.6611C13.3957 25.6611 15.487 26.5655 17.4652 28.3742C17.7478 28.6003 17.7478 28.9394 17.5217 29.1655L15.7696 30.9742C15.5435 31.2003 15.2609 31.2003 15.0348 30.9742C13.7913 29.9003 12.2087 29.2785 10.5696 29.2785C6.83913 29.2785 4.12609 32.3872 4.12609 36.0046C4.12609 39.622 6.89565 42.6742 10.6261 42.6742C12.3783 42.6742 13.8478 41.9959 15.0348 41.035C15.2609 40.809 15.6 40.8655 15.7696 41.035L17.5783 42.9003C17.8043 43.1264 17.7478 43.4655 17.5217 43.6916C15.5435 45.6133 13.0565 46.5177 10.4565 46.5177C4.6913 46.5177 0 41.8829 0 36.1177C0 30.3524 4.6913 25.6611 10.4565 25.6611Z" fill="white"/>
<path d="M22.7783 26.5086C22.7783 26.226 23.0044 25.9434 23.3435 25.9434H31.6522C35.1566 25.9434 37.9827 28.7129 37.9827 32.1608C37.9827 34.8173 36.2305 37.0216 33.687 38.039L37.6435 45.3868C37.8696 45.7825 37.6435 46.2347 37.1348 46.2347H34.0827C33.8001 46.2347 33.687 46.0651 33.6305 45.9521L29.787 38.2651H26.5653V45.6694C26.5653 45.9521 26.2827 46.2347 26.0001 46.2347H23.3435C23.0044 46.2347 22.7783 45.9521 22.7783 45.6694V26.5086ZM31.2566 35.1564C32.7827 35.1564 34.1392 33.7999 34.1392 32.2173C34.1392 30.6912 32.7827 29.3912 31.2566 29.3912H26.5653V35.1564H31.2566Z" fill="white"/>
<path d="M47.3653 36.4564L40.8087 26.7912C40.5826 26.3955 40.8087 25.9434 41.2609 25.9434H44.2C44.4261 25.9434 44.5957 26.1129 44.6522 26.226L49.287 32.8955L53.9218 26.226C54.0348 26.1129 54.1479 25.9434 54.3739 25.9434H57.3696C57.8218 25.9434 58.0479 26.3955 57.8218 26.7912L51.1522 36.3999V45.6694C51.1522 45.9521 50.8696 46.2347 50.587 46.2347H47.9305C47.5913 46.2347 47.3653 45.9521 47.3653 45.6694V36.4564Z" fill="white"/>
<path d="M61.8348 26.5086C61.8348 26.226 62.0609 25.9434 62.4001 25.9434H69.2392C72.8001 25.9434 75.7392 28.826 75.7392 32.3303C75.7392 35.9477 72.8001 38.8303 69.2957 38.8303H65.6783V45.6694C65.6783 45.9521 65.3957 46.2347 65.1131 46.2347H62.4566C62.1174 46.2347 61.8914 45.9521 61.8914 45.6694V26.5086H61.8348ZM69.0131 35.326C70.6522 35.326 72.0088 34.026 72.0088 32.3303C72.0088 30.7477 70.6522 29.5042 69.0131 29.5042H65.6783V35.326H69.0131Z" fill="white"/>
<path d="M83.2001 29.3911H78.7914C78.4522 29.3911 78.2261 29.1085 78.2261 28.8258V26.4519C78.2261 26.1693 78.4522 25.8867 78.7914 25.8867H91.4522C91.7914 25.8867 92.0174 26.1693 92.0174 26.4519V28.8258C92.0174 29.1085 91.7914 29.3911 91.4522 29.3911H87.0435V45.6693C87.0435 45.9519 86.7609 46.2345 86.4783 46.2345H83.7653C83.4827 46.2345 83.2001 45.9519 83.2001 45.6693V29.3911Z" fill="white"/>
<path d="M1.46954 54.6565C1.46954 54.3739 1.69563 54.0913 2.03476 54.0913H13.8478C14.1869 54.0913 14.413 54.3739 14.413 54.6565V57.0304C14.413 57.3131 14.1869 57.5957 13.8478 57.5957H5.2565V63.0217H12.4348C12.7174 63.0217 13 63.3044 13 63.587V65.9609C13 66.2435 12.7174 66.5261 12.4348 66.5261H5.2565V73.8739C5.2565 74.1565 4.97389 74.4391 4.69128 74.4391H2.03476C1.69563 74.4391 1.46954 74.1565 1.46954 73.8739V54.6565Z" fill="white"/>
<path d="M19.2739 54.6565C19.2739 54.3739 19.5 54.0913 19.8391 54.0913H31.6522C31.9913 54.0913 32.2174 54.3739 32.2174 54.6565V57.0304C32.2174 57.3131 31.9913 57.5957 31.6522 57.5957H23.0609V62.3435H30.2391C30.5218 62.3435 30.8044 62.6261 30.8044 62.9087V65.3391C30.8044 65.6783 30.5218 65.9044 30.2391 65.9044H23.0609V70.9913H31.6522C31.9913 70.9913 32.2174 71.2739 32.2174 71.5565V73.9304C32.2174 74.2131 31.9913 74.4957 31.6522 74.4957H19.8391C19.5 74.4957 19.2739 74.2131 19.2739 73.9304V54.6565Z" fill="white"/>
<path d="M37.7566 54.6565C37.7566 54.3739 37.9827 54.0913 38.3218 54.0913H40.9783C41.2609 54.0913 41.5435 54.3739 41.5435 54.6565V70.9348H48.9479C49.287 70.9348 49.5131 71.2174 49.5131 71.5V73.8739C49.5131 74.1565 49.287 74.4391 48.9479 74.4391H38.3218C37.9827 74.4391 37.7566 74.1565 37.7566 73.8739V54.6565Z" fill="white"/>
<path d="M53.8652 54.6565C53.8652 54.3739 54.0913 54.0913 54.4305 54.0913H57.087C57.3696 54.0913 57.6522 54.3739 57.6522 54.6565V70.9348H65C65.3391 70.9348 65.5652 71.2174 65.5652 71.5V73.8739C65.5652 74.1565 65.3391 74.4391 65 74.4391H54.4305C54.0913 74.4391 53.8652 74.1565 53.8652 73.8739V54.6565Z" fill="white"/>
<path d="M92.413 54.8261C92.3 54.4305 92.5261 54.1478 92.9217 54.1478H95.5782C95.8043 54.1478 96.0304 54.3739 96.0869 54.5435L99.0826 66.1305H99.1956L103.83 54.2044C103.887 54.0348 104.056 53.8652 104.339 53.8652H104.848C105.13 53.8652 105.3 54.0348 105.356 54.2044L109.991 66.1305H110.104L113.043 54.5435C113.1 54.3174 113.326 54.1478 113.552 54.1478H116.209C116.604 54.1478 116.83 54.4305 116.717 54.8261L111.235 74.3261C111.178 74.5522 110.952 74.7218 110.726 74.7218H110.274C109.991 74.7218 109.822 74.5522 109.765 74.3826L104.565 61.2696H104.396L99.2521 74.3826C99.1391 74.5522 99.0261 74.7218 98.7434 74.7218H98.2913C98.0652 74.7218 97.8391 74.5522 97.7826 74.3261L92.413 54.8261Z" fill="white"/>
<path d="M0.226108 100.044L1.2435 98.235C1.46959 97.8394 1.97828 97.8394 2.20437 98.0089C2.37393 98.122 4.69133 99.8176 6.55654 99.8176C8.08263 99.8176 9.21307 98.8568 9.21307 97.6133C9.21307 96.1437 7.96959 95.1263 5.53915 94.1089C2.82611 93.035 0.113065 91.2828 0.113065 87.835C0.113065 85.235 2.0348 82.2959 6.61307 82.2959C9.5522 82.2959 11.8131 83.822 12.4348 84.2176C12.7174 84.3872 12.8305 84.8959 12.6044 85.1785L11.5305 86.8176C11.3044 87.1568 10.8522 87.3829 10.5131 87.1568C10.287 86.9872 8.08263 85.5742 6.50002 85.5742C4.86089 85.5742 3.95654 86.6481 3.95654 87.6089C3.95654 88.9655 5.03046 89.9263 7.40437 90.8307C10.2305 91.9611 13.4522 93.6568 13.4522 97.3872C13.4522 100.383 10.8522 103.152 6.78263 103.152C3.10872 103.152 0.960891 101.457 0.395674 100.892C0.113065 100.665 -0.0565002 100.496 0.226108 100.044Z" fill="white"/>
<path d="M18.5391 83.1433C18.5391 82.8607 18.8217 82.5781 19.1043 82.5781H21.8173C22.1565 82.5781 22.3825 82.8607 22.3825 83.1433V90.8303H31.8217V83.1433C31.8217 82.8607 32.0478 82.5781 32.3869 82.5781H35.0434C35.326 82.5781 35.6086 82.8607 35.6086 83.1433V102.304C35.6086 102.587 35.326 102.869 35.0434 102.869H32.3869C32.0478 102.869 31.8217 102.587 31.8217 102.304V94.2781H22.326V102.304C22.326 102.587 22.0999 102.869 21.7608 102.869H19.0478C18.7652 102.869 18.4825 102.587 18.4825 102.304V83.1433H18.5391Z" fill="white"/>
<path d="M42.2783 83.1433C42.2783 82.8607 42.5609 82.5781 42.8435 82.5781H45.5566C45.8392 82.5781 46.1218 82.8607 46.1218 83.1433V102.304C46.1218 102.587 45.8392 102.869 45.5566 102.869H42.8435C42.5609 102.869 42.2783 102.587 42.2783 102.304V83.1433Z" fill="white"/>
<path d="M52.7913 83.1433C52.7913 82.8607 53.0174 82.5781 53.3565 82.5781H60.1957C63.7565 82.5781 66.6957 85.4607 66.6957 88.9651C66.6957 92.5825 63.7565 95.4651 60.2522 95.4651H56.6348V102.304C56.6348 102.587 56.3522 102.869 56.0696 102.869H53.4131C53.0739 102.869 52.8478 102.587 52.8478 102.304V83.1433H52.7913ZM59.9696 92.0173C61.6087 92.0173 62.9652 90.7173 62.9652 89.0216C62.9652 87.439 61.6087 86.1955 59.9696 86.1955H56.6348V92.0173H59.9696Z" fill="white"/>
<path d="M104.622 25.0957C102.983 25.0957 101.4 25.4348 100.043 26.1131L102.248 29.5044C102.983 29.2218 103.83 29.0522 104.622 29.0522C108.465 29.0522 111.63 32.274 111.63 36.1174C111.63 39.9609 108.465 43.1261 104.622 43.1261C103.774 43.1261 102.983 42.9566 102.248 42.674L99.7609 45.9522C101.23 46.687 102.87 47.0827 104.622 47.0827C110.726 47.0827 115.643 42.2218 115.643 36.1174C115.643 30.0131 110.726 25.0957 104.622 25.0957Z" fill="white"/>
<path d="M99.874 31.7651L97.6131 28.2607C95.6348 30.239 94.3914 33.0086 94.3914 36.1173C94.3914 39.0564 95.5218 41.7129 97.387 43.6912L99.874 40.4129C98.9131 39.226 98.3479 37.6999 98.3479 36.1173C98.4044 34.4781 98.9696 33.0086 99.874 31.7651Z" fill="#0037FF"/>
<path d="M73.4783 59.2348L71.2174 55.7305C69.2391 57.7087 67.9957 60.4783 67.9957 63.587C67.9957 66.5261 69.1261 69.1826 70.9913 71.1609L73.4783 67.8826C72.5174 66.6957 71.9522 65.1696 71.9522 63.587C71.9522 61.9479 72.5174 60.4218 73.4783 59.2348Z" fill="#EF0000"/>
<path d="M78.9608 52.5088C77.3217 52.5088 75.7391 52.8479 74.3826 53.5262L76.5869 56.9175C77.3217 56.6349 78.1695 56.4653 78.9608 56.4653C82.8043 56.4653 85.9695 59.6871 85.9695 63.5305C85.9695 67.374 82.8043 70.5392 78.9608 70.5392C78.113 70.5392 77.3217 70.3697 76.5869 70.0871L74.1 73.3653C75.5695 74.1001 77.2087 74.4957 78.9608 74.4957C85.0652 74.4957 89.9826 69.6349 89.9826 63.5305C89.9826 57.4262 85.0652 52.5088 78.9608 52.5088Z" fill="white"/>
<path d="M1.0174 16.2217H3.84348V1.46957H1.0174V0H8.70435V1.46957H5.59566V16.2217H13.6217V12.7174H15.2609V17.6348H1.0174V16.2217Z" fill="white"/>
<path d="M18.4257 11.5869C18.4257 7.68691 20.6301 5.08691 24.1344 5.08691C27.9779 5.08691 29.4475 8.30865 29.4475 11.1347C29.4475 11.3608 29.4475 11.7 29.3909 11.926H20.0649C20.1779 14.8087 21.817 16.6173 24.6431 16.6173C26.1692 16.6173 27.6388 16.1087 28.7692 15.3739V16.8434C27.6953 17.4652 26.2822 18.0304 24.4735 18.0304C20.5735 17.9739 18.4257 15.3739 18.4257 11.5869ZM20.1214 10.626H27.7518C27.6388 8.53474 26.6779 6.38691 24.0779 6.38691C21.7605 6.38691 20.3475 8.13909 20.1214 10.626Z" fill="white"/>
</svg>
