<svg width="143" height="14" viewBox="0 0 143 14" fill="none" xmlns="http://www.w3.org/2000/svg">
<path d="M1.42468 7.51192V12.5367H0.285034V0.440918H7.51146V1.47697H1.42468V7.51192Z" fill="white"/>
<path d="M1.55412 12.6663H0.155457V0.311523H7.64089V1.60658H1.55412V12.6663ZM0.414468 12.4073H1.29511V1.34756H7.35597V0.570537H0.414468V12.4073Z" fill="white"/>
<path d="M8.78033 12.537H7.61478L12.7173 0.15625H12.795L17.8975 12.537H16.7061L15.8772 10.439H9.63504L8.78033 12.537ZM12.7691 2.69456L10.0495 9.40295H15.4628L12.7691 2.69456Z" fill="white"/>
<path d="M18.1048 12.6651H16.6285L15.7996 10.5671H9.73878L8.88407 12.6651H7.43359L12.6397 0.0253906H12.8987L18.1048 12.6651ZM16.8098 12.4061H17.7163L12.7692 0.388006L7.82211 12.4061H8.70274L9.55745 10.3081H15.981L16.8098 12.4061ZM15.6442 9.53109H9.86829L12.7692 2.35649L15.6442 9.53109ZM10.2568 9.27208H15.2816L12.7951 3.05582L10.2568 9.27208Z" fill="white"/>
<path d="M8.65118 12.537H7.48563L12.5623 0.15625H12.6399L17.7425 12.537H16.5769L15.7481 10.439H9.50589L8.65118 12.537ZM12.6399 2.69456L9.92032 9.40295H15.3336L12.6399 2.69456Z" fill="white"/>
<path d="M17.9754 12.6651H16.499L15.6702 10.5671H9.58342L8.72864 12.6651H7.27817L12.4843 0.0253906H12.7433L17.9754 12.6651ZM16.6544 12.4061H17.5609L12.6138 0.388006L7.6926 12.4061H8.54738L9.40209 10.3081H15.8255L16.6544 12.4061ZM15.5148 9.53109H9.71293L12.6397 2.35649L15.5148 9.53109ZM10.1014 9.27208H15.1262L12.6397 3.05582L10.1014 9.27208Z" fill="white"/>
<path d="M19.8922 0.440918H23.8292C26.1085 0.440918 27.2222 1.76188 27.2222 3.41954C27.2222 4.58509 26.6524 5.38803 25.6682 5.82835C27.1963 6.24277 28.1805 7.38242 28.1805 9.01416C28.1805 10.9827 26.9114 12.5367 24.2954 12.5367H19.8922V0.440918ZM23.9587 5.43983C25.4868 5.43983 26.0825 4.61099 26.0825 3.41954C26.0825 2.30579 25.4351 1.45106 23.7773 1.45106H21.0319V5.43983H23.9587ZM24.1918 11.5007C26.2121 11.5007 27.015 10.4129 27.015 8.98831C27.015 7.51192 26.1085 6.42407 24.14 6.42407H21.0319V11.5007H24.1918Z" fill="white"/>
<path d="M24.2953 12.6663H19.7626V0.311523H23.8291C26.4192 0.311523 27.3517 1.91739 27.3517 3.41965C27.3517 4.4816 26.8854 5.31044 26.0307 5.80256C27.4812 6.29468 28.31 7.4861 28.31 9.01432C28.31 10.7756 27.2739 12.6663 24.2953 12.6663V12.6663ZM20.0216 12.4073H24.2953C26.6264 12.4073 28.051 11.1123 28.051 9.01432C28.051 7.51201 27.1444 6.37238 25.6422 5.95796L25.2796 5.85436L25.6422 5.69895C26.6006 5.25863 27.1186 4.4557 27.1186 3.39375C27.1186 1.63248 25.8753 0.544634 23.855 0.544634H20.0216V12.4073ZM24.1917 11.6303H20.9023V6.29468H24.1399C26.0048 6.29468 27.1444 7.30483 27.1444 8.9884C27.1444 10.672 26.0825 11.6303 24.1917 11.6303ZM21.1613 11.3713H24.1658C25.9012 11.3713 26.8596 10.5166 26.8596 8.9884C26.8596 7.43434 25.8753 6.55369 24.1399 6.55369H21.1613V11.3713ZM23.9586 5.56945H20.9023V1.34756H23.7514C25.3055 1.34756 26.1861 2.0987 26.1861 3.44556C26.212 4.81832 25.4091 5.56945 23.9586 5.56945ZM21.1613 5.31044H23.9586C25.2796 5.31044 25.953 4.68881 25.953 3.44556C25.953 2.28 25.176 1.63248 23.7773 1.63248H21.1872V5.31044H21.1613Z" fill="white"/>
<path d="M19.8922 0.440918H23.8292C26.1085 0.440918 27.2222 1.76188 27.2222 3.41954C27.2222 4.58509 26.6524 5.38803 25.6682 5.82835C27.1963 6.24277 28.1805 7.38242 28.1805 9.01416C28.1805 10.9827 26.9114 12.5367 24.2954 12.5367H19.8922V0.440918ZM23.9587 5.43983C25.4868 5.43983 26.0825 4.61099 26.0825 3.41954C26.0825 2.30579 25.4351 1.45106 23.7773 1.45106H21.0319V5.43983H23.9587ZM24.1918 11.5007C26.2121 11.5007 27.015 10.4129 27.015 8.98831C27.015 7.51192 26.1085 6.42407 24.14 6.42407H21.0319V11.5007H24.1918Z" fill="white"/>
<path d="M24.2953 12.6663H19.7626V0.311523H23.8291C26.4192 0.311523 27.3517 1.91739 27.3517 3.41965C27.3517 4.4816 26.8854 5.31044 26.0307 5.80256C27.4812 6.29468 28.31 7.4861 28.31 9.01432C28.31 10.7756 27.2739 12.6663 24.2953 12.6663V12.6663ZM20.0216 12.4073H24.2953C26.6264 12.4073 28.051 11.1123 28.051 9.01432C28.051 7.51201 27.1444 6.37238 25.6422 5.95796L25.2796 5.85436L25.6422 5.69895C26.6006 5.25863 27.1186 4.4557 27.1186 3.39375C27.1186 1.63248 25.8753 0.544634 23.855 0.544634H20.0216V12.4073ZM24.1917 11.6303H20.9023V6.29468H24.1399C26.0048 6.29468 27.1444 7.30483 27.1444 8.9884C27.1444 10.672 26.0825 11.6303 24.1917 11.6303ZM21.1613 11.3713H24.1658C25.9012 11.3713 26.8596 10.5166 26.8596 8.9884C26.8596 7.43434 25.8753 6.55369 24.1399 6.55369H21.1613V11.3713ZM23.9586 5.56945H20.9023V1.34756H23.7514C25.3055 1.34756 26.1861 2.0987 26.1861 3.44556C26.212 4.81832 25.4091 5.56945 23.9586 5.56945ZM21.1613 5.31044H23.9586C25.2796 5.31044 25.953 4.68881 25.953 3.44556C25.953 2.28 25.176 1.63248 23.7773 1.63248H21.1872V5.31044H21.1613Z" fill="white"/>
<path d="M38.3336 12.5367H36.935L34.5262 9.45451C34.2153 9.50633 33.8787 9.53218 33.5419 9.53218H32.0656V12.5626H30.9V0.440918H33.5419C36.8314 0.440918 38.5409 2.3835 38.5409 4.99951C38.5409 6.94207 37.5825 8.52205 35.7176 9.16958L38.3336 12.5367ZM33.4383 8.49614C36.1838 8.49614 37.2976 7.01981 37.2976 4.99951C37.2976 2.97922 36.1838 1.47697 33.4383 1.47697H32.0397V8.49614H33.4383Z" fill="white"/>
<path d="M38.5927 12.6663H36.8573L34.4485 9.5841C34.1636 9.63593 33.8786 9.63593 33.516 9.63593H32.1692V12.6663H30.7446V0.311523H33.516C36.6759 0.311523 38.6444 2.0987 38.6444 4.99962C38.6444 7.0199 37.6343 8.54806 35.899 9.24742L38.5927 12.6663ZM36.9868 12.4073H38.0487L35.4586 9.11791L35.64 9.06608C37.3753 8.44447 38.3854 6.96808 38.3854 4.99962C38.3854 2.28001 36.5206 0.570537 33.516 0.570537H31.0036V12.4073H31.8843V9.37692H33.4901C33.8786 9.37692 34.1895 9.35101 34.4744 9.29918H34.5521L36.9868 12.4073ZM33.4384 8.6258H31.9101V1.34756H33.4384C36.0026 1.34756 37.4271 2.64262 37.4271 4.99962C37.453 7.33074 36.0285 8.6258 33.4384 8.6258ZM32.1692 8.36679H33.4384C36.5206 8.36679 37.1681 6.52779 37.1681 4.99962C37.1681 2.82393 35.8471 1.60658 33.4384 1.60658H32.1692V8.36679Z" fill="white"/>
<path d="M38.3336 12.5367H36.935L34.5262 9.45451C34.2153 9.50633 33.8787 9.53218 33.5419 9.53218H32.0656V12.5626H30.9V0.440918H33.5419C36.8314 0.440918 38.5409 2.3835 38.5409 4.99951C38.5409 6.94207 37.5825 8.52205 35.7176 9.16958L38.3336 12.5367ZM33.4383 8.49614C36.1838 8.49614 37.2976 7.01981 37.2976 4.99951C37.2976 2.97922 36.1838 1.47697 33.4383 1.47697H32.0397V8.49614H33.4383Z" fill="white"/>
<path d="M38.5927 12.6663H36.8573L34.4485 9.5841C34.1636 9.63593 33.8786 9.63593 33.516 9.63593H32.1692V12.6663H30.7446V0.311523H33.516C36.6759 0.311523 38.6444 2.0987 38.6444 4.99962C38.6444 7.0199 37.6343 8.54806 35.899 9.24742L38.5927 12.6663ZM36.9868 12.4073H38.0487L35.4586 9.11791L35.64 9.06608C37.3753 8.44447 38.3854 6.96808 38.3854 4.99962C38.3854 2.28001 36.5206 0.570537 33.516 0.570537H31.0036V12.4073H31.8843V9.37692H33.4901C33.8786 9.37692 34.1895 9.35101 34.4744 9.29918H34.5521L36.9868 12.4073ZM33.4384 8.6258H31.9101V1.34756H33.4384C36.0026 1.34756 37.4271 2.64262 37.4271 4.99962C37.453 7.33074 36.0285 8.6258 33.4384 8.6258ZM32.1692 8.36679H33.4384C36.5206 8.36679 37.1681 6.52779 37.1681 4.99962C37.1681 2.82393 35.8471 1.60658 33.4384 1.60658H32.1692V8.36679Z" fill="white"/>
<path d="M42.4521 0.440918H41.2865V12.5367H42.4521V0.440918Z" fill="white"/>
<path d="M42.6075 12.6663H41.1829V0.311523H42.6075V12.6663ZM41.416 12.4073H42.3226V0.570537H41.416V12.4073Z" fill="white"/>
<path d="M42.4521 0.440918H41.2865V12.5367H42.4521V0.440918Z" fill="white"/>
<path d="M42.6075 12.6663H41.1829V0.311523H42.6075V12.6663ZM41.416 12.4073H42.3226V0.570537H41.416V12.4073Z" fill="white"/>
<path d="M44.9384 6.47552C44.9384 2.87527 47.6321 0.285156 51.0511 0.285156C53.0973 0.285156 54.7031 1.11399 55.791 2.53855L54.9104 3.18608C54.0038 2.02053 52.7347 1.3471 51.0252 1.3471C48.2278 1.3471 46.1299 3.5487 46.1299 6.47552C46.1299 9.45412 48.2538 11.604 51.1029 11.604C52.8383 11.604 54.2629 10.8787 55.2212 9.58362L56.1277 10.2312C54.9362 11.7852 53.2527 12.64 51.077 12.64C47.6321 12.6659 44.9384 10.0758 44.9384 6.47552V6.47552Z" fill="white"/>
<path d="M51.1028 12.796C49.3674 12.796 47.7615 12.1484 46.596 10.9829C45.4304 9.81735 44.8088 8.21152 44.8088 6.47612C44.8088 2.87587 47.5025 0.15625 51.0509 0.15625C53.0713 0.15625 54.7548 0.959182 55.8945 2.46145L55.9721 2.56505L54.8584 3.36799L54.7807 3.26438C53.8483 2.07293 52.5791 1.4772 50.9992 1.4772C48.2795 1.4772 46.2334 3.627 46.2334 6.47612C46.2334 9.37707 48.2795 11.475 51.0768 11.475C52.7345 11.475 54.1073 10.8016 55.0915 9.50657L55.1693 9.40292L56.283 10.2059L56.2052 10.3095C55.0138 11.9672 53.2784 12.796 51.1028 12.796V12.796ZM51.0509 0.415261C47.6579 0.415261 45.0678 3.03127 45.0678 6.47612C45.0678 8.15969 45.6635 9.68784 46.7772 10.8016C47.891 11.9154 49.4192 12.537 51.1028 12.537C53.1489 12.537 54.7807 11.7858 55.9721 10.2836L55.2728 9.79143C54.2627 11.0865 52.8382 11.7599 51.1287 11.7599C48.176 11.7599 46.0261 9.53242 46.0261 6.50202C46.0261 3.49749 48.176 1.24409 51.0509 1.24409C52.6827 1.24409 53.9778 1.83982 54.962 3.05717L55.6354 2.56505C54.5217 1.14049 52.9417 0.415261 51.0509 0.415261V0.415261Z" fill="white"/>
<path d="M44.9384 6.47552C44.9384 2.87527 47.6321 0.285156 51.0511 0.285156C53.0973 0.285156 54.7031 1.11399 55.791 2.53855L54.9104 3.18608C54.0038 2.02053 52.7347 1.3471 51.0252 1.3471C48.2278 1.3471 46.1299 3.5487 46.1299 6.47552C46.1299 9.45412 48.2538 11.604 51.1029 11.604C52.8383 11.604 54.2629 10.8787 55.2212 9.58362L56.1277 10.2312C54.9362 11.7852 53.2527 12.64 51.077 12.64C47.6321 12.6659 44.9384 10.0758 44.9384 6.47552V6.47552Z" fill="white"/>
<path d="M51.1028 12.796C49.3674 12.796 47.7615 12.1484 46.596 10.9829C45.4304 9.81735 44.8088 8.21152 44.8088 6.47612C44.8088 2.87587 47.5025 0.15625 51.0509 0.15625C53.0713 0.15625 54.7548 0.959182 55.8945 2.46145L55.9721 2.56505L54.8584 3.36799L54.7807 3.26438C53.8483 2.07293 52.5791 1.4772 50.9992 1.4772C48.2795 1.4772 46.2334 3.627 46.2334 6.47612C46.2334 9.37707 48.2795 11.475 51.0768 11.475C52.7345 11.475 54.1073 10.8016 55.0915 9.50657L55.1693 9.40292L56.283 10.2059L56.2052 10.3095C55.0138 11.9672 53.2784 12.796 51.1028 12.796V12.796ZM51.0509 0.415261C47.6579 0.415261 45.0678 3.03127 45.0678 6.47612C45.0678 8.15969 45.6635 9.68784 46.7772 10.8016C47.891 11.9154 49.4192 12.537 51.1028 12.537C53.1489 12.537 54.7807 11.7858 55.9721 10.2836L55.2728 9.79143C54.2627 11.0865 52.8382 11.7599 51.1287 11.7599C48.176 11.7599 46.0261 9.53242 46.0261 6.50202C46.0261 3.49749 48.176 1.24409 51.0509 1.24409C52.6827 1.24409 53.9778 1.83982 54.962 3.05717L55.6354 2.56505C54.5217 1.14049 52.9417 0.415261 51.0509 0.415261V0.415261Z" fill="white"/>
<path d="M7.4854 0.440918H6.42349V3.08283H7.4854V0.440918Z" fill="white"/>
<path d="M7.64078 3.21245H6.29395V0.311523H7.64078V3.21245ZM6.55296 2.95343H7.35592V0.570537H6.55296V2.95343Z" fill="white"/>
<path d="M1.37271 6.47607H4.73985V7.48622H1.37271" fill="white"/>
<path d="M4.86945 7.64074H1.3728V7.35588H4.61044V6.60469H1.3728V6.3457H4.86945V7.64074Z" fill="white"/>
<path d="M7.48541 0.310059H6.16446H0V12.6649H1.42456V7.64006H4.714V6.34502H1.42456V1.60512H6.16446V3.21098H7.48541V0.310059Z" fill="white"/>
<path d="M82.7279 1.50227V12.6915H82.2102V0H82.2881L90.9648 11.5001V0.310814H91.4831V13.0024H91.4052L82.7279 1.50227Z" fill="white"/>
<path d="M97.6992 0.828083H93.7362V0.310059H102.258V0.828083H98.2947V12.6908H97.7247V0.828083H97.6992Z" fill="white"/>
<path d="M104.407 8.59843V0.310059H104.977V8.5466C104.977 10.9813 106.428 12.3282 108.474 12.3282C110.52 12.3282 111.997 11.0072 111.997 8.5466V0.310059H112.567V8.62434C112.567 11.3698 110.779 12.8462 108.448 12.8462C106.117 12.8462 104.407 11.3698 104.407 8.59843Z" fill="white"/>
<path d="M122.979 12.6908H122.253L119.482 9.40138C119.145 9.42722 118.783 9.47905 118.42 9.47905H116.685V12.6908H116.115V0.310059H118.446C121.761 0.310059 123.393 2.35624 123.393 4.89455C123.393 6.94077 122.305 8.6761 120.129 9.27187L122.979 12.6908ZM118.342 8.96103C121.502 8.96103 122.797 7.14795 122.797 4.89455C122.797 2.64116 121.476 0.828083 118.342 0.828083H116.658V8.96103H118.342Z" fill="white"/>
<path d="M126.864 8.36533V12.1728H133.675V12.6908H126.294V0.310059H133.442V0.828083H126.889V7.87316L126.864 8.36533ZM126.864 7.12204H131.629V7.64006H126.864" fill="white"/>
<path d="M72.6265 8.36533V12.1728H79.4388V12.6908H72.0565V0.310059H79.2059V0.828083H72.6527V7.87316L72.6265 8.36533ZM72.6265 7.12204H77.3925V7.64006H72.6265" fill="white"/>
<path d="M135.748 10.1536C136.447 11.5004 137.742 12.3293 139.322 12.3293C141.316 12.3293 142.43 11.2932 142.43 9.76505C142.43 8.26275 141.627 7.4598 139.814 6.57919L138.674 6.03527C136.939 5.18053 135.981 4.5071 135.981 2.92713C135.981 1.26946 137.301 0.20752 138.96 0.20752C140.462 0.20752 141.446 0.75144 142.197 1.94289L141.757 2.2019C141.109 1.19176 140.255 0.699638 138.96 0.699638C137.535 0.699638 136.551 1.65798 136.551 2.92713C136.551 4.27399 137.301 4.76611 138.934 5.56905L140.047 6.11297C142.119 7.12311 143 8.10733 143 9.76505C143 11.604 141.627 12.8732 139.322 12.8732C137.379 12.8732 136.006 11.8889 135.256 10.4643L135.748 10.1536Z" fill="white"/>
<path d="M69.2335 0.310059H68.9743H66.4622V0.828083H68.7676L64.4938 11.6806L60.1941 0.828083H62.4994V0.310059H59.987H59.728H59.3913L64.4161 13.0016H64.4938L69.5443 0.310059H69.2335Z" fill="white"/>
</svg>
