<?xml version="1.0" encoding="utf-8"?>
<!-- Generator: Adobe Illustrator 26.3.1, SVG Export Plug-In . SVG Version: 6.00 Build 0)  -->
<svg version="1.1" id="Layer_1" xmlns="http://www.w3.org/2000/svg" xmlns:xlink="http://www.w3.org/1999/xlink" x="0px" y="0px"
	 viewBox="0 0 151.2 184.8" style="enable-background:new 0 0 151.2 184.8;" xml:space="preserve">
<style type="text/css">
	.st0{display:none;fill:#FFFFFF;}
	.st1{fill:#FFFFFF;}
</style>
<rect x="-27.4" y="-18.4" class="st0" width="243.3" height="219.9"/>
<path class="st1" d="M0,158V0.5c0.2,0,0.3,0,0.5,0c49.6,0,99.3,0,148.9,0c0.4,0,0.7,0,1.1,0.1v157.3h-1.7c-49,0-98.1,0-147.1,0
	C1.1,157.9,0.6,157.9,0,158L0,158z M5,152.9h140.6V5.4H5V152.9L5,152.9z"/>
<path class="st1" d="M27.1,184.8c-1.1-0.4-2.2-0.7-3.2-1.2c-3.4-1.6-5.3-5.1-4.9-9c0.4-3.8,2.5-6.4,6-7.7c5.2-1.9,10.4,0.9,12,5.9
	c0.4,1.4,0.4,2.9,0.6,4.5H23.1c0.3,1.7,2.2,3.4,3.8,3.7c1.7,0.2,3.4,0.1,4.7-1.2c0.8-0.8,1.4-0.3,2,0.1c2.1,1.2,2,1.2,0.1,2.8
	c-1.3,1.1-2.9,1.6-4.5,2.1L27.1,184.8L27.1,184.8z M33.4,173.8c-0.6-2.4-3.3-4-5.8-3.8c-2,0.2-4.1,1.8-4.7,3.8H33.4L33.4,173.8z"/>
<path class="st1" d="M46.5,184.8c-1.3-0.5-2.7-0.9-3.9-1.6c-2.4-1.5-4-3.7-4-6.7c0-3.3,0-6.7,0-10.1h3.6c0,3.1,0.1,6.2,0,9.4
	c-0.1,2.3,2,4.8,4.5,5.2c3.8,0.7,6.7-2.4,6.6-5.7c-0.1-2.9,0-5.8,0-8.8h3.6v18.4h-3.6v-1.6c-1.5,0.6-3,1.1-4.5,1.6L46.5,184.8
	L46.5,184.8z"/>
<path class="st1" d="M0,166.4h3.5l0.1,1.4c1.1-0.4,2.3-0.9,3.4-1.2c5.9-1.5,11.3,3.2,11.2,8.7c-0.1,3.2,0,6.4,0,9.6h-3.6
	c0-3,0-6,0-9c0-0.8-0.2-1.7-0.5-2.5c-0.8-2.4-3.6-3.9-6.2-3.4c-2.3,0.4-4.4,2.9-4.4,5.2c0,3.2,0,6.4,0,9.7H0V166.4L0,166.4z"/>
<path class="st1" d="M92.7,184.8c0-1.8-0.2-3.7,0-5.5c0.3-2.4-0.8-4-2.1-5.8c-1.6-2.3-3.1-4.6-4.8-7.2c1.5,0,2.7,0,4,0
	c0.3,0,0.6,0.3,0.8,0.6c1.3,1.9,2.6,3.9,4,5.9c0.8-1.2,1.6-2.4,2.4-3.6c0.2-0.3,0.3-0.5,0.5-0.8c0.9-1.4,2.3-2.1,4.2-2.1
	c0.5,0,0.9,0,1.7,0c-1,1.5-1.9,2.9-2.8,4.2c-0.9,1.3-1.8,2.7-2.7,4c-0.9,1.3-1.4,2.6-1.3,4.3c0.1,2,0,4,0,6L92.7,184.8L92.7,184.8z"
	/>
<path class="st1" d="M78.1,184.8v-18.4h3.8v14.8h8.9v3.6L78.1,184.8L78.1,184.8z"/>
<path class="st1" d="M64.5,184.8v-18.4H68v14.7h9.2v3.7L64.5,184.8L64.5,184.8z"/>
<path class="st1" d="M59.2,184.8v-18.4H63v18.4C63,184.8,59.2,184.8,59.2,184.8z"/>
<path class="st1" d="M149.6,175.5c2.3,2.9,1.5,6.4-0.7,7.9c-0.7,0.5-1.6,1-2.4,1.1c-3.7,0.1-7.4,0.1-11.2,0.1v-18.1h2.1
	c2.4,0,4.9,0.1,7.3,0c2.4-0.1,4.4,0.7,5.5,2.9C151.5,171.4,151.2,173.5,149.6,175.5L149.6,175.5z M138.7,181.2c2.4,0,4.8,0,7.2,0
	c1,0,1.7-0.9,1.8-1.9c0-1.1-0.6-2.1-1.7-2.1c-2.4-0.1-4.8,0-7.3,0L138.7,181.2L138.7,181.2z M138.7,169.7v4.1c2.4,0,4.7,0,7,0
	c1.2,0,2-0.8,2-1.9c0-1.1-0.7-2.1-1.9-2.1C143.4,169.7,141.1,169.7,138.7,169.7z"/>
<path class="st1" d="M133.8,184.5h-3.2l-0.1-1.9c-2.6,1.9-5.3,2.4-8.2,1.6c-2-0.5-3.6-1.7-4.8-3.4c-2.4-3.3-2.3-8.1,0.4-11.2
	c3.1-3.6,7.2-4.1,12.6-1.3l0.1-1.8h3.2L133.8,184.5L133.8,184.5z M124.8,181.2c3.2,0,5.8-2.4,5.8-5.6c0.1-3.2-2.4-5.9-5.6-5.9
	c-3.2-0.1-5.8,2.6-5.8,5.7C119.1,178.6,121.6,181.2,124.8,181.2L124.8,181.2z"/>
<path class="st1" d="M104.1,166.5h3.2v14.8h8.9v3.3h-12.1L104.1,166.5L104.1,166.5z"/>
<path class="st1" d="M35.5,44.1v29.7c2.5-0.6,5-1.3,7.5-1.7c8.2-1.4,16-0.3,22.7,5.2c6.2,5.1,9.6,11.7,9.6,19.8
	c0,3.7,0.1,7.4-0.3,11c-1.3,11.2-11.3,20.9-22.5,21.9c-8.6,0.8-16.8-0.7-24.7-4.4c-2.4-1.1-3.4-3.8-2.2-6.1c1.1-2.2,3.8-3,6.2-1.6
	c5.7,3.2,11.9,4.2,18.2,4c7.4-0.3,13.8-5.8,15.6-13.2c0.3-1.4,0.5-2.8,0.5-4.3c0-3.2,0.2-6.4-0.2-9.6c-1-7.9-8-15.4-18.3-14.7
	c-4.7,0.3-9.2,1.4-13.3,3.6c-4.1,2.2-8.2-1-8.1-5.2c0.2-12.1,0.1-24.1,0.1-36.2c0-4.2,2.5-6.8,6.8-6.8c11.7,0,23.5,0,35.2,0
	c2.4,0,4.1,1.6,4.4,3.9c0.3,2-1,4-3.1,4.6c-0.6,0.2-1.2,0.2-1.8,0.2c-10.3,0-20.6,0-30.9,0C37,44.1,35.5,44.1,35.5,44.1z"/>
<path class="st1" d="M108.6,98.6c1.2-1.5,2.1-3.1,3.4-4.3c5.3-5.2,13.9-4,17.8,2.4c2,3.3,2.5,6.9,2.5,10.7c0,3.7,0,7.4,0,11.1
	c0,0.8-0.1,1.6-0.3,2.3c-0.5,1.3-1.4,2.1-2.9,2.1c-12.9,0-25.8,0-38.7,0c-1.7,0-3.1-1.1-3.1-2.9c0-5.9-0.7-11.8,0.4-17.7
	c0.6-3,2-5.6,4.4-7.5c4.6-3.6,11-3,14.8,1.5C107.6,97.2,108.1,97.9,108.6,98.6L108.6,98.6z M111,117.4h17c0-3.7,0.1-7.4,0-11.1
	c0-1.4-0.3-2.9-0.7-4.3c-0.9-3.1-3.1-4.9-6.2-5.3c-3.2-0.5-5.7,0.7-7.4,3.3c-1,1.5-1.9,3.3-2.1,5C111.1,109,111.1,113.2,111,117.4
	L111,117.4z M106.6,117.4c0-3.9,0.2-7.6-0.1-11.3c-0.1-1.6-1-3.3-1.8-4.7c-0.9-1.6-2.4-2.7-4.2-3.1c-3.4-0.7-7.9,0.7-8.6,6.2
	c-0.4,3.7-0.2,7.6-0.3,11.3c0,0.5,0,1,0,1.6L106.6,117.4L106.6,117.4z"/>
<path class="st1" d="M133,54.5c0,2.7-0.9,7-2.4,11.2c-0.4,1-1.1,1.7-2.2,1.6c-1-0.1-1.8-1-1.8-2.2c0-0.8,0.1-1.6,0.4-2.3
	c1.6-4.6,2.3-9.3,1.6-14.1c-0.1-0.9-0.4-1.8-0.7-2.6c-2.2-5.4-8.7-6.5-12.3-1.8c-1.2,1.6-2.2,3.5-3,5.4c-1.5,3.4-2.8,6.9-4.3,10.4
	c-0.4,1.1-1,2.1-1.7,3c-4,5.7-12,5.9-16.2,0.3c-2.5-3.3-3.4-7.2-3.6-11.2c-0.2-4.6,0.5-9.1,2-13.4c0.5-1.5,1.5-2.2,2.6-1.9
	c1.2,0.3,2,1.8,1.6,3.2c-0.5,2.1-1.2,4.1-1.6,6.2c-0.7,3.8-0.8,7.7,0.8,11.4c1.6,3.6,5.1,5.2,8.4,3.7c1.8-0.8,3-2.3,3.8-4
	c1.5-3.4,2.7-6.8,4.2-10.1c1-2.2,2-4.6,3.4-6.6c4.7-6.7,14-6.3,18.3,0.6C132,44.4,132.9,48.1,133,54.5L133,54.5z"/>
<path class="st1" d="M109.9,75.9c6.8,0,13.5,0,20.2,0c2.2,0,3.5,1.8,2.6,3.9c-0.5,1.2-1.3,1.6-2.5,1.6c-5.3,0-10.6,0-15.9,0
	c-8.3,0-16.6-0.1-24.9,0c-2.4,0-3.3-2.2-2.6-3.9c0.5-1.2,1.4-1.6,2.6-1.6C96.2,75.9,103.1,75.9,109.9,75.9L109.9,75.9z"/>
</svg>
