<svg width="100%" style="max-width:100%;" viewBox="0 0 100 36" fill="none" xmlns="http://www.w3.org/2000/svg">
<path fill-rule="evenodd" clip-rule="evenodd" d="M85.3933 12.7067C86.4503 12.7067 87.3072 11.8498 87.3072 10.7928C87.3072 9.73574 86.4503 8.87885 85.3933 8.87885C84.3362 8.87885 83.4793 9.73574 83.4793 10.7928C83.4793 11.8498 84.3362 12.7067 85.3933 12.7067ZM39.459 10.5536H43.4062L47.5751 20.5066H47.7525L51.9215 10.5536H55.8686V25.3673H52.7641V15.7254H52.6384L48.7208 25.295H46.6068L42.6892 15.6892H42.5636V25.3673H39.459V10.5536ZM61.867 25.5771C60.7829 25.5771 59.8835 25.2998 59.169 24.7453C58.4545 24.1907 58.0972 23.3637 58.0972 22.2642C58.0972 21.4348 58.2968 20.7838 58.6959 20.3113C59.0951 19.8387 59.6174 19.4939 60.263 19.2769C60.9135 19.0551 61.6132 18.9104 62.3622 18.8429C63.3478 18.7465 64.0525 18.6452 64.4763 18.5391C64.9 18.433 65.1119 18.2016 65.1119 17.8447V17.8013C65.1119 17.3432 64.9641 16.9888 64.6684 16.738C64.3777 16.4873 63.9638 16.3619 63.4266 16.3619C62.8599 16.3619 62.409 16.4824 62.074 16.7236C61.7389 16.9647 61.5171 17.2709 61.4087 17.6422L58.4964 17.4107C58.7132 16.3981 59.2503 15.5952 60.1078 15.002C60.9701 14.4089 62.0813 14.1123 63.4414 14.1123C64.2841 14.1123 65.0725 14.2425 65.8068 14.5029C66.541 14.7633 67.1323 15.1708 67.5808 15.7254C68.0341 16.2751 68.2608 16.9912 68.2608 17.8736V25.3673H65.2746V23.8266H65.1859C64.9099 24.3426 64.496 24.7645 63.9441 25.0924C63.3971 25.4155 62.7047 25.5771 61.867 25.5771ZM62.7688 23.4505C63.4587 23.4505 64.0254 23.2552 64.4689 22.8646C64.9124 22.4692 65.1341 21.9797 65.1341 21.3962V20.2172C65.0109 20.2992 64.8187 20.3715 64.5576 20.4342C64.3013 20.4969 64.0254 20.5524 63.7297 20.6006C63.439 20.644 63.1778 20.6826 62.9462 20.7163C62.3943 20.7935 61.9483 20.9454 61.6083 21.172C61.2732 21.3987 61.1056 21.729 61.1056 22.163C61.1056 22.5873 61.2609 22.908 61.5713 23.125C61.8867 23.342 62.2858 23.4505 62.7688 23.4505ZM72.2191 28.8103C73.0913 29.3987 74.2912 29.6928 75.8188 29.6928C76.9029 29.6928 77.8614 29.5337 78.6942 29.2154C79.527 28.8971 80.1799 28.4246 80.653 27.7977C81.131 27.1708 81.37 26.3968 81.37 25.4758V14.257H78.2433V16.1232H78.125C77.9871 15.8194 77.785 15.5132 77.5189 15.2046C77.2528 14.896 76.9054 14.638 76.4767 14.4306C76.048 14.2184 75.5158 14.1123 74.8801 14.1123C74.0522 14.1123 73.2884 14.3245 72.5886 14.7489C71.8938 15.1684 71.3345 15.7977 70.9107 16.6368C70.4919 17.4758 70.2824 18.5271 70.2824 19.7905C70.2824 21.0201 70.4869 22.0352 70.896 22.8357C71.3099 23.6361 71.8643 24.2317 72.5591 24.6223C73.2588 25.0129 74.035 25.2082 74.8875 25.2082C75.7942 25.2082 76.5087 25.0225 77.0311 24.6512C77.5534 24.2751 77.9181 23.858 78.125 23.3999H78.2581V25.4324C78.2581 26.1606 78.0339 26.6838 77.5854 27.002C77.1419 27.3203 76.5777 27.4794 75.8927 27.4794C75.1979 27.4794 74.6633 27.354 74.2887 27.1033C73.9192 26.8574 73.6703 26.5849 73.5422 26.2859L70.6298 26.6693C70.8171 27.5084 71.3468 28.222 72.2191 28.8103ZM77.6446 22.0689C77.2306 22.6187 76.6442 22.8935 75.8853 22.8935C75.1117 22.8935 74.5203 22.6138 74.1113 22.0545C73.7023 21.4951 73.4978 20.7356 73.4978 19.776C73.4978 18.8308 73.6999 18.0593 74.1039 17.4614C74.513 16.8634 75.1068 16.5644 75.8853 16.5644C76.6492 16.5644 77.238 16.8562 77.652 17.4397C78.0659 18.0231 78.2729 18.8019 78.2729 19.776C78.2729 20.7549 78.0634 21.5192 77.6446 22.0689ZM83.8758 25.3673V14.257H87.0246V25.3673H83.8758ZM91.6758 24.861C92.5136 25.3432 93.5139 25.5843 94.6769 25.5843C95.6871 25.5843 96.5618 25.4059 97.3009 25.049C98.0401 24.6874 98.6191 24.1835 99.038 23.5373C99.4618 22.8911 99.6983 22.1437 99.7476 21.295H96.7761C96.6825 21.8881 96.4509 22.3462 96.0813 22.6693C95.7117 22.9876 95.2559 23.1467 94.7138 23.1467C93.9796 23.1467 93.3907 22.8574 92.9472 22.2787C92.5086 21.6952 92.2893 20.873 92.2893 19.8122C92.2893 18.7609 92.5111 17.9484 92.9546 17.3746C93.3981 16.8007 93.9845 16.5138 94.7138 16.5138C95.2904 16.5138 95.7561 16.685 96.1109 17.0274C96.4706 17.3649 96.6924 17.811 96.7761 18.3655H99.7476C99.7032 17.5072 99.4642 16.7597 99.0306 16.1232C98.6019 15.4867 98.013 14.9924 97.264 14.6404C96.5199 14.2884 95.6526 14.1123 94.6621 14.1123C93.5139 14.1123 92.5234 14.3559 91.6906 14.8429C90.8578 15.3251 90.2148 15.9978 89.7614 16.861C89.313 17.7193 89.0887 18.7175 89.0887 19.8556C89.0887 20.9791 89.3105 21.9725 89.754 22.8357C90.2024 23.6988 90.843 24.3739 91.6758 24.861Z" fill="#FFFFFF"></path>
<path fill-rule="evenodd" clip-rule="evenodd" d="M14.93 1.54775e-05C16.4879 1.90808 18.2061 3.68005 20.0642 5.29536C18.826 9.31123 18.1595 13.5778 18.1595 18C18.1595 22.4222 18.826 26.6888 20.0642 30.7046C18.2061 32.32 16.4879 34.0919 14.93 36C13.372 34.0918 11.6536 32.3198 9.79545 30.7044C11.0336 26.6886 11.7001 22.4222 11.7001 18C11.7001 13.5779 11.0336 9.31141 9.79544 5.2956C11.6536 3.68022 13.372 1.90817 14.93 1.54775e-05ZM6.24401 27.9282C4.27707 26.5495 2.18958 25.3311 0.000496756 24.292C0.607701 22.3017 0.934344 20.189 0.934344 18.0001C0.934345 15.8111 0.607688 13.6984 0.000461067 11.708C2.18956 10.6689 4.27706 9.4505 6.24401 8.07185C6.99612 11.2591 7.39408 14.5831 7.39408 18C7.39408 21.4169 6.99612 24.7409 6.24401 27.9282ZM22.4659 18C22.4659 21.417 22.8638 24.7409 23.6159 27.9281C25.5828 26.5495 27.6703 25.3312 29.8593 24.292C29.2521 22.3017 28.9254 20.1891 28.9254 18.0001C28.9254 15.811 29.2521 13.6983 29.8594 11.708C27.6703 10.6688 25.5829 9.45049 23.616 8.07187C22.8639 11.2591 22.4659 14.5831 22.4659 18Z" fill="#6851FF"></path>
</svg>