<?xml version="1.0" encoding="UTF-8"?><svg id="Layer_2" xmlns="http://www.w3.org/2000/svg" viewBox="0 0 90.43 65.21"><defs><style>.cls-1{stroke-width:.71px;}.cls-1,.cls-2,.cls-3,.cls-4,.cls-5,.cls-6,.cls-7,.cls-8,.cls-9{fill:none;stroke-linecap:round;stroke-linejoin:round;}.cls-1,.cls-5{stroke:#fff;}.cls-10{fill:#03bbc7;}.cls-11{fill:#edd6c0;}.cls-12{fill:#e75e98;}.cls-13{fill:#684fe0;}.cls-14{fill:#8f76ff;}.cls-15{fill:#324082;}.cls-16{fill:#cd447e;}.cls-17{fill:#dcc0af;}.cls-18{fill:#1dd5e1;}.cls-19{fill:#182668;}.cls-20{fill:#444;}.cls-21{fill:#5f84f9;}.cls-22{fill:#4e35c6;}.cls-23{fill:#2669fe;}.cls-2{stroke-width:.15px;}.cls-2,.cls-3,.cls-4,.cls-7,.cls-8,.cls-9{stroke:#9b786e;}.cls-3{stroke-width:.2px;}.cls-4{stroke-width:.2px;}.cls-5{stroke-width:.69px;}.cls-6{stroke:#d6428b;stroke-width:.23px;}.cls-7{stroke-width:.23px;}.cls-8{stroke-width:.23px;}.cls-9{stroke-width:.17px;}</style></defs><g id="_ÎÓÈ_1"><g><g><path class="cls-13" d="M0,65.2c1,.04,1.99-.09,2.97-.32,.09-.42,.3-.81,.58-1.14,.43-.51,.97-.79,1.51-1.14,.51-.33,1.02-.68,1.53-1.02,.81-.55,1.6-1.15,2.29-1.85,0,0,0-.02,0-.03-.02-.25,.12-.48,.16-.73,.07-.46-.24-.91-.64-1.16-.41-.25-1.05-.45-1.61-.55-.4,1.02-.92,1.97-1.67,2.76-.99,1.03-2.31,1.69-3.41,2.61-.8,.67-1.5,1.59-1.7,2.57Z"/><path class="cls-22" d="M10.47,60.33c-.32,.04-.65,.09-.96,.01-.3-.08-.59-.31-.63-.61-.69,.7-1.47,1.3-2.29,1.85-.51,.34-1.02,.69-1.53,1.02-.55,.36-1.09,.63-1.51,1.14-.27,.33-.48,.73-.58,1.14,.48-.12,.96-.26,1.43-.42,1.32-.45,2.57-1.06,3.81-1.69,.71-.36,1.51-.55,2.31-.71,.05-.57,.02-1.15-.03-1.73h-.03Z"/><path class="cls-11" d="M8.88,59.73c.04,.3,.33,.53,.63,.61,.31,.08,.64,.03,.96-.01h.03c-.02-.26-.05-.52-.07-.78-.08-.85-.11-1.74,.1-2.55-.53-.09-1.06-.2-1.57-.36-.59-.18-1.18-.43-1.71-.75-.14,.47-.29,.93-.47,1.37,.56,.1,1.2,.3,1.61,.55,.4,.24,.71,.7,.64,1.16-.04,.25-.18,.48-.16,.73,0,0,0,.02,0,.03Z"/><path class="cls-15" d="M12.4,52.9c-1.01,.34-2.07,.51-3.05,.92-.26,.11-.56,.33-.48,.59,.07,.25,.41,.29,.68,.28,.81-.03,1.61-.06,2.41-.09,.21-.59,.43-1.19,.65-1.78-.07,.03-.15,.05-.22,.08Z"/><path class="cls-13" d="M14.88,49.46c0,.23,0,.47,0,.71,1.43-.04,2.86,.17,4.22,.62,.2-1.23,.38-2.46,.57-3.7-1.07-1.33-2.01-2.76-2.93-4.19-.6,1.32-1.19,2.64-1.75,3.98-.03,.86-.07,1.72-.11,2.58Z"/><path class="cls-11" d="M19.1,50.79c-1.35-.45-2.79-.67-4.22-.62,0,.55-.02,1.09-.4,1.51-.5,.54-1.18,.89-1.87,1.14-.22,.59-.44,1.18-.65,1.78,1.03-.04,2.07-.08,3.1-.12,1.08-.04,2.28-.13,3.04-.89,.61-.61,.79-1.52,.93-2.38,.02-.14,.04-.28,.07-.42Z"/><path class="cls-15" d="M15.71,32.7c-.81-.05-1.64,.09-2.33,.52-1.09,.67-1.64,1.92-2.1,3.11-2.35,6.09-3.67,12.51-4.92,18.91,.27,.24,.57,.46,.88,.65,.53,.32,1.12,.57,1.71,.75,.51,.16,1.04,.27,1.57,.36,.19,.03,.37,.06,.56,.09,.28-.83,.58-1.66,.88-2.49-.81,.03-1.61,.06-2.41,.09-.27,.01-.61-.03-.68-.28-.08-.27,.22-.48,.48-.59,.98-.41,2.05-.58,3.05-.92,.07-.03,.15-.05,.22-.08,.75-1.99,1.54-3.98,2.37-5.94,.05-1.15,.09-2.29,.15-3.44,.15-3.58,.33-7.17,.58-10.74Z"/><path class="cls-15" d="M16.17,32.75c-.15-.02-.31-.04-.46-.05-.25,3.58-.43,7.16-.58,10.74-.05,1.15-.1,2.29-.15,3.44,.56-1.33,1.14-2.66,1.75-3.98,.44-.97,.89-1.93,1.35-2.89,.7,1.15,1.4,2.3,2.1,3.45,.22-1.6,.44-3.21,.65-4.81,.15-1.18,.3-2.36,.46-3.53-.76-.55-1.55-1.05-2.4-1.45-.87-.4-1.77-.78-2.72-.92Z"/><path class="cls-19" d="M18.09,40.02c-.46,.96-.91,1.92-1.35,2.89,.92,1.44,1.86,2.87,2.93,4.19,.18-1.21,.35-2.42,.52-3.63-.7-1.15-1.4-2.3-2.1-3.45Z"/><path class="cls-19" d="M20.18,43.47c-.17,1.21-.34,2.42-.52,3.63,.57,.71,1.17,1.39,1.82,2.02,2.08,2.02,4.73,3.58,7.63,3.82,1.35,.11,2.67-.07,4-.35-3.36-.08-6.75-1.16-9.09-3.52-1.13-1.14-1.97-2.52-2.8-3.89-.35-.57-.69-1.14-1.04-1.71Z"/><path class="cls-15" d="M21.3,35.12c-.17,1.18-.31,2.36-.46,3.53-.21,1.61-.43,3.21-.65,4.81,.34,.57,.69,1.14,1.04,1.71,.83,1.37,1.67,2.75,2.8,3.89,2.34,2.36,5.73,3.44,9.09,3.52,1.55-.33,3.09-.81,4.63-1.16,4.06-.91,8.27-.88,12.39-.38,4.08,.49,8.04,1.62,12.1,2.13,2.67,.33,5.34,.66,8.02,1,.04,0,.08,0,.12,.01-.04-1.31,.12-2.62,.47-3.88,.1-.37,.22-.73,.35-1.09-6.06-2.16-12.29-3.84-18.51-5.51-4.08-1.1-8.19-2.2-12.38-2.6-.68-.07-1.37-.11-2.05-.14-2.97-.11-5.99,.17-8.86-.57-2.12-.54-3.82-1.83-5.49-3.2-.85-.7-1.7-1.42-2.6-2.07Z"/><path class="cls-22" d="M22.51,29.05c-.41,.86-.5,1.94-.69,2.88-.21,1.06-.38,2.13-.53,3.2,.9,.65,1.74,1.37,2.6,2.07-.29-3.44-.36-6.91-.21-10.36-.42,.72-.81,1.46-1.17,2.21Z"/><path class="cls-12" d="M24.26,4.25c-.4,1.65,.04,3.18,.61,4.74,.4,1.09,.81,2.18,1.08,3.31,.48-.03,.95-.08,1.43-.16-.09-.54-.21-1.07-.36-1.6-.34-.42-.65-.89-.71-1.42-.07-.67,.46-1.45,1.13-1.36,.51,.07,.84,.56,1.01,1.04,.11,.32,.19,.66,.31,.98,.41-.13,.81-.27,1.22-.4-.46-.94-.61-2.02-.43-3.04,.14-.79,.54-1.61,1.27-1.96,.97-.46,2.11,.04,3.06,.55,.64,.34,1.37,.7,2.07,.76,.34,.03,.67,0,.98-.14,.84-.36,1.29-1.36,1.15-2.26-.14-.9-.77-1.67-1.55-2.16-.77-.49-1.68-.73-2.59-.9-1.28-.24-2.49-.14-3.76-.22-1.22-.08-2.44,.19-3.48,.84-1.22,.76-2.13,2-2.47,3.4Z"/><path class="cls-22" d="M25.63,16.37c-.3,.28-.7,.44-1.1,.58,.19,1.54,.99,3,2.21,3.98,1.05,.85,2.41,1.34,3.77,1.37,.1-.43,.18-.87,.26-1.31-1.25-.12-2.45-.65-3.37-1.49-.9-.82-1.52-1.94-1.76-3.13Z"/><path class="cls-11" d="M25.63,16.37c.24,1.19,.86,2.3,1.76,3.13,.92,.84,2.13,1.37,3.37,1.49,.14-.83,.25-1.67,.39-2.49,.13-.77,.26-1.54,.39-2.31,.03-.16,.06-.32,.08-.49-1.87-.52-3.68-1.22-5.42-2.08,.11,.9,.11,1.97-.43,2.6-.04,.05-.09,.1-.14,.14Z"/><path class="cls-17" d="M27.02,10.54c.15,.53,.27,1.06,.36,1.6-.47,.07-.95,.13-1.43,.16,.05,.21,.1,.42,.14,.63,.04,.21,.08,.44,.11,.69,1.73,.86,3.55,1.56,5.42,2.08,.05-.3,.1-.6,.15-.91-.44-.08-.87-.27-1.24-.52-.64-.42-1.14-1.01-1.65-1.58-.53-.61-1.06-1.21-1.59-1.82-.09-.11-.19-.21-.28-.33Z"/><path class="cls-11" d="M27.44,7.77c-.68-.09-1.21,.68-1.13,1.36,.06,.53,.36,.99,.71,1.42,.09,.11,.18,.22,.28,.33,.53,.61,1.06,1.21,1.59,1.82,.5,.58,1.01,1.16,1.65,1.58,.37,.25,.8,.44,1.24,.52,.31,.06,.63,.07,.94,0,.71-.15,1.31-.64,1.71-1.23,.4-.6,.63-1.29,.82-1.98,.52-1.92,.77-3.91,.74-5.89-.71-.06-1.43-.41-2.07-.76-.95-.51-2.09-1.01-3.06-.55-.74,.35-1.13,1.16-1.27,1.96-.18,1.03-.03,2.11,.43,3.04-.4,.13-.81,.27-1.22,.4-.13-.31-.2-.66-.31-.98-.17-.48-.5-.97-1.01-1.04Z"/><path class="cls-13" d="M18.9,33.67c.86,.4,1.65,.9,2.4,1.45,.15-1.07,.32-2.14,.53-3.2,.19-.94,.28-2.02,.69-2.88,.36-.75,.75-1.49,1.17-2.21-.15,3.45-.08,6.91,.21,10.36,1.67,1.37,3.37,2.66,5.49,3.2,2.87,.74,5.9,.45,8.86,.57,.69,.03,1.37,.07,2.05,.14-.51-1.75-.93-3.53-1.25-5.32-.02-.13-.05-.26-.08-.39-.42-.81-.82-1.64-1.16-2.5-.89-2.23-1.41-4.65-1.15-7.03,.05-.44,.21-.98,.66-1.06,.27-.05,.54,.11,.77,.26,1.76,1.16,3.38,2.52,4.84,4.03,1.29,.75,2.38,1.45,3.33,2.68,.62,.81,1.18,1.68,1.64,2.59,.85-.7,1.79-1.29,2.8-1.74-1.04-2.68-2.78-4.5-4.38-6.54-2.23-2.86-4.72-5.49-7.72-7.58-2.2-1.54-4.59-1.8-7.07-2.33-.13,.77-.26,1.54-.39,2.31-.14,.82-.25,1.66-.39,2.49-.07,.44-.16,.88-.26,1.31-1.36-.03-2.72-.52-3.77-1.37-1.21-.98-2.02-2.44-2.21-3.98-.1,.03-.2,.07-.29,.1-1.12,.39-2.21,.84-3.27,1.37-1.01,.5-2.01,1.08-2.72,1.95-1.12,1.37-1.47,3.31-1.75,5.01-.34,2.04-.55,4.11-.7,6.17-.03,.39-.06,.77-.08,1.16,.15,0,.31,.02,.46,.05,.95,.14,1.85,.52,2.72,.92Z"/><path class="cls-22" d="M42.51,28.85c.15,.08,.29,.17,.43,.25-1.45-1.52-3.08-2.87-4.84-4.03-.23-.15-.5-.31-.77-.26-.44,.08-.61,.62-.66,1.06-.27,2.38,.26,4.8,1.15,7.03,.34,.85,.73,1.68,1.16,2.5-.37-1.86-1.01-4.32-.52-6.09,.55-1.96,2.79-1.19,4.06-.45Z"/><path class="cls-11" d="M47.9,34.38c.17,.33,.32,.66,.46,1,.23,.56,.31,.89,.26,1.47-.04,.39-.42,1.11,.09,1.38,.38,.2,.69-.13,.93-.63-.02,.39-.07,.78-.15,1.13-.17,.78-.31,1.28-.23,2.15,.02,.22,.06,.46,.19,.57,.16,.14,.36,.01,.52-.13,.76-.68,1.33-1.77,1.56-3,.28-1.51-.03-3.08-.42-4.49-.12-.42-.25-.82-.4-1.2-1.01,.45-1.95,1.04-2.8,1.74Z"/><path class="cls-11" d="M70.84,50.31c-.34,1.26-.5,2.58-.47,3.88,1.58,.19,3.18,.18,4.77,.17,.18,0,.39,.01,.61,.03,.03-.34,.05-.68,.08-1.02,.02-.24,.03-.48-.05-.7-.02-.04-.04-.08-.06-.12-.41-.66-1.6-.29-2.1-.89-.21-.26-.22-.64-.12-.96,0-.01,0-.03,.02-.04-.9-.1-1.79-.21-2.68-.35Z"/><path class="cls-13" d="M75.72,52.54s.04,.08,.06,.12c.28-.44,.42-.97,.49-1.5,.08-.7,.04-1.42,.1-2.12,.07-.85,.29-1.7,.74-2.43,.33-.54,.79-1.01,1.33-1.33,0-.3,.01-.6,.02-.9,0-.25,0-.52-.16-.7-.29-.32-.84-.13-1.17,.16-.81,.7-1.09,1.73-1.44,2.7-.42,1.17-.95,2.26-1.68,3.29-.19,.26-.38,.52-.49,.83,0,.01-.01,.03-.02,.04-.11,.32-.09,.7,.12,.96,.5,.6,1.69,.22,2.1,.89Z"/><path class="cls-22" d="M75.84,53.36c-.03,.34-.05,.68-.08,1.02,.5,.03,1.03,.05,1.38-.18,.52-.34,.76-1.23,.83-1.8,.1-.8,0-1.6-.03-2.4-.03-.94,0-1.98,.27-2.88,.18-.61,.22-1.21,.23-1.83-.54,.32-1,.79-1.33,1.33-.45,.73-.67,1.58-.74,2.43-.06,.7-.01,1.42-.1,2.12-.06,.52-.21,1.06-.49,1.5,.08,.22,.07,.47,.05,.7Z"/><g><path class="cls-20" d="M31.94,8.46c-.11,.13-.3,.16-.45,.06-.14-.1-.17-.28-.06-.41,.11-.13,.3-.16,.45-.06,.14,.1,.17,.28,.06,.41Z"/><path class="cls-20" d="M35.36,8.47c-.03,.16-.2,.27-.37,.25-.17-.03-.29-.18-.26-.34,.03-.16,.2-.27,.37-.25,.17,.03,.29,.18,.26,.34Z"/><path class="cls-4" d="M33.79,8.1c-.09,.66,0,1.33,.24,1.94,.05,.13,.11,.27,.08,.41-.06,.24-.35,.35-.6,.42"/><path class="cls-1" d="M31.54,11.7c.52,.77,1.59,1.01,2.51,.57"/><path class="cls-8" d="M30.66,6.71c.62-.21,1.31-.21,1.93,0"/><path class="cls-8" d="M34.44,6.93c.62-.21,1.31-.21,1.93,0"/></g></g><g><path class="cls-12" d="M5.71,28.68c-.67,.8-.52,2.04,.15,2.8,.66,.76,1.69,1.11,2.72,1.21,.59,.06,1.25,.08,1.66,.5,.52,.53,.35,1.41,.5,2.15,.16,.82,.76,1.53,1.56,1.81,.79,.28,1.74,.13,2.43-.39,.55-.42,1.01-1.08,1.69-1.13,.36-.03,.7,.14,1.06,.2,.35,.07,.8,0,.97-.33l.05-.02c-.03-.11-.06-.23-.08-.35-.14-.75-.08-1.56,.15-2.34,.1-.34,.25-.66,.43-.96-.39-.1-.79-.13-1.19-.22-.44-.1-.88-.31-1.08-.69-.19-.36-.15-.79-.17-1.21-.04-1.2-.67-2.39-1.74-2.91-1.07-.52-2.57-.22-3.25,.8-.24,.36-.4,.82-.79,1.03-.57,.31-1.22-.08-1.78-.35-.52-.25-1.11-.42-1.7-.38-.59,.04-1.19,.29-1.57,.75Z"/><path class="cls-11" d="M7.75,34.3c-.04-.1-.1-.18-.17-.26-.03-.04-.08-.08-.13-.08-.05,0-.09,.04-.1,.08-.02,.04-.02,.09-.02,.14,0,.29-.05,.58-.13,.86-.12-.26-.64-1.97-.99-1.89-.57,.13,.25,1.18,.06,1.34-.22,.19-.86-1.53-1.18-.7-.15,.39,.51,.95,.56,1.33-.24-.11-1.16-1.48-1.36-.64-.11,.49,.92,.97,.86,1.41-.04,.27-.79-.81-.95-.83-.98-.1,.95,2.12,1.24,2.33,.73,.54,1.54,1.12,2.35,1.62,.14-.13,.28-.27,.4-.42,.34-.42,.6-.92,.74-1.44-.4-.18-.79-.41-1.14-.7,0-.13,.02-.27,.03-.4,0-.03,0-.06,.01-.1,.06-.55,.15-1.1-.09-1.66Z"/><path class="cls-18" d="M25.32,40.87c0,.1,0,.2,0,.3,.01,.59-.5,.92-1.04,1.07-.74,.21-1.55,0-2.19-.43-.5-.33-.9-.79-1.24-1.29-1.24-.14-2.47-.34-3.69-.57-3.03-.56-5.1-1.3-7.58-2.54h0c-.21-.08-.42-.16-.63-.26-.14,.52-.4,1.02-.74,1.44-.12,.15-.26,.29-.4,.42-.03,.03-.06,.06-.1,.09,.97,.77,1.97,1.49,3.01,2.16,.39,.25,.81,.49,1.22,.71,.88,.23,1.77,.43,2.62,.77,1.43,.57,2.97,1.36,3.65,2.81,.7,1.47,.35,3.2-.05,4.77-.42,1.62-.82,3.22-.3,4.76,1.18-.95,2.49-1.54,4.12-1.55,1.37,0,2.74,.25,4.11,.22,.07,0,.15,0,.22,0,.53-.03,1.08-.15,1.46-.51,.14-.13,.23-.28,.29-.45,.23-.71-.12-1.71-.12-2.39,0-.41,.03-.81,.09-1.21-.1-.52-.16-1.05-.17-1.58-.02-1.48,.44-3.03,1.52-4.06,1.63-1.56,3.87-1.64,5.69-2.66,.5-.39,.94-.85,1.33-1.37,.51-.68,.95-1.41,1.42-2.12-.04-.02-.08-.04-.12-.06-.65-.34-1.18-.9-1.48-1.56,0-.01-.01-.02-.02-.04-2.12,2.65-4.93,4.2-8.34,4.73-.84,.13-1.69,.21-2.53,.24,0,.05,0,.11,0,.16Z"/><path class="cls-10" d="M14.54,42.74c-.84-.34-1.74-.53-2.62-.77,2.1,1.15,4.28,2.16,4.39,4.93,.07,1.66-.5,3.28-.8,4.92-.22,1.2-.3,2.45,.22,3.57,.19,.4,.4,.79,.65,1.16,.17-.25,.37-.49,.59-.7,.28-.27,.56-.52,.85-.75-.52-1.55-.11-3.15,.3-4.76,.4-1.57,.75-3.3,.05-4.77-.69-1.45-2.22-2.24-3.65-2.81Z"/><path class="cls-14" d="M36.75,57.21c-2.21-1.35-6.72-2.68-10.45-3.46-.07,0-.15,0-.22,0-1.37,.04-2.74-.22-4.11-.22-1.63,0-2.94,.6-4.12,1.55-.29,.23-.57,.48-.85,.75-.22,.21-.42,.45-.59,.7,.38,.54,.84,1.02,1.44,1.33,.07,.04,.14,.07,.21,.1,1.84-.54,3.67-1.26,5.57-1.37,4.04-.23,8.76,2.29,12.9,2.49,.16-.57,.4-1.11,.65-1.65-.15-.06-.29-.14-.42-.23Z"/><path class="cls-11" d="M22.71,38.76c.82,.57,1.86,.94,2.78,.77,.56-.1,1.07-.4,1.48-.96,.35-.48,.54-1.06,.66-1.65,.25-1.24,.24-2.85-.22-4.2-1.06-.1-2.09-.52-2.91-1.2-.66,.99-1.56,1.82-2.6,2.37h0c-.04,.18-.08,.37-.11,.55-.03,.15-.07,.31-.19,.4-.19,.13-.44,0-.66-.05-.53-.1-1.08,.43-1.01,.97,.06,.48,.47,.81,.86,1.08,.06,.04,.12,.09,.17,.13,.64,.54,1.05,1.27,1.76,1.77Z"/><path class="cls-11" d="M24.83,40.73c-.14-.05-.27-.1-.4-.16-.47-.21-.91-.5-1.32-.82-.16-.12-.31-.26-.46-.39-.56-.51-1.06-1.09-1.55-1.67,.14,.31,.31,.62,.39,.96,.11,.46,.06,.97-.43,1.58-.08,.07-.16,.13-.25,.19,0,0-.02,.01-.03,.02,.02,.03,.04,.06,.05,.08,.34,.5,.74,.96,1.24,1.29,.64,.43,1.45,.64,2.19,.43,.54-.15,1.05-.48,1.04-1.07,0-.1,0-.2,0-.3-.16-.04-.33-.09-.49-.14h0Z"/><path class="cls-12" d="M21.78,34.44c.04-.18,.07-.36,.11-.54-.21,.11-.42,.21-.64,.3l-.47-.16c-.06-.97-.74-1.85-1.67-2.15-.04-.01-.09-.03-.13-.04-.18,.3-.32,.62-.43,.96-.24,.78-.3,1.58-.15,2.34,.02,.12,.05,.23,.08,.35,.19,.68,.55,1.31,1.11,1.83,.56,.53,1.23,.93,1.91,1.32-.08-.34-.25-.65-.39-.96-.09-.21-.18-.42-.22-.63l.07-.07c-.05-.05-.11-.09-.17-.13-.38-.28-.8-.61-.86-1.08-.07-.55,.48-1.08,1.01-.97,.22,.05,.47,.18,.66,.05,.12-.08,.16-.25,.19-.4Z"/><path class="cls-17" d="M24.83,40.73c.16,.06,.32,.11,.49,.14,0-.05,0-.11,0-.16h0c0-.11,0-.21,.02-.31,.03-.3,.07-.59,.15-.87-.92,.17-1.96-.2-2.78-.77-.71-.5-1.12-1.23-1.76-1.77l-.07,.07c.04,.21,.13,.41,.22,.63,.49,.58,.99,1.16,1.55,1.67,.15,.14,.3,.27,.46,.39,.4,.32,.85,.61,1.32,.82,.13,.06,.26,.11,.4,.16h0Z"/><path class="cls-12" d="M25.24,30.11c-1.03-.61-2.26-.89-3.39-.53-.82,.26-1.58,.74-2.19,1.38-.26,.27-.49,.57-.68,.89,.04,.01,.09,.02,.13,.04,.93,.3,1.61,1.18,1.67,2.15l.47,.16c.22-.09,.43-.19,.64-.3h0c1.04-.56,1.94-1.38,2.6-2.37,.29-.44,.54-.91,.73-1.4v-.02Z"/><path class="cls-12" d="M25.23,30.13c-.19,.49-.44,.96-.73,1.4,.83,.68,1.86,1.1,2.91,1.2-.22-.66-.55-1.26-1.01-1.71-.34-.34-.74-.65-1.17-.9v.02Z"/><path class="cls-10" d="M29.36,43.54c-1.08,1.03-1.54,2.58-1.52,4.06,0,.53,.07,1.06,.17,1.58,.11-.77,.33-1.53,.66-2.24,.63-1.37,1.93-3.05,3.18-3.92,.41-.28,.83-.54,1.25-.81,.4-.26,.76-.59,1.18-.82,.28-.15,.54-.33,.78-.52-1.82,1.02-4.06,1.1-5.69,2.66Z"/><path class="cls-11" d="M36.14,32.75s-.04-.08-.08-.11c-.03-.03-.08-.05-.12-.03-.04,.02-.06,.07-.08,.12-.02,.1-.04,.2-.03,.3,.04,.58,.35,1.01,.64,1.46,.02,.02,.03,.05,.05,.08,.07,.11,.14,.22,.2,.33-.14,.32-.33,.62-.53,.89,.29,.66,.83,1.23,1.48,1.56,.53-.84,1.04-1.78,1.47-2.65,.16-.3,.84-3.02,.05-2.52-.13,.08-.3,1.33-.45,1.11-.24-.34,.44-1.2,.13-1.57-.53-.64-.73,.93-.88,1.12-.12-.35,.2-1.11-.1-1.38-.64-.58-.45,1.17-.71,1.1-.23-.06,.01-1.3-.53-1.17-.34,.08-.04,1.76-.03,2.03-.19-.2-.35-.43-.49-.68Z"/><path class="cls-13" d="M36.53,59.08c-4.14-.19-8.86-2.72-12.9-2.49-1.9,.11-3.73,.83-5.57,1.37,1.23,.53,2.66,.29,4.01,.18,1.98-.17,8.13,.59,10.05,1.08,1.23,.31,2.43,.77,3.69,.94,.18,.02,.36,.04,.55,.05,0-.22,.03-.45,.07-.67,.03-.16,.06-.31,.11-.47Z"/><path class="cls-12" d="M38.41,56.89c-.19,.26-.4,.55-.72,.61-.17,.04-.35,0-.51-.07-.25,.54-.49,1.08-.65,1.65-.04,.16-.08,.31-.11,.47-.04,.22-.06,.44-.07,.67,.78,.04,1.59-.07,2.29-.41,.06-.03,.13-.06,.19-.1,.79-.47,1.31-1.35,1.78-2.11,.26-.43,.51-.96,.28-1.4-.03-.07-.08-.13-.13-.18-.3-.3-.83-.35-1.23-.18-.16,.07-.3,.16-.44,.28-.26,.22-.48,.5-.68,.77Z"/><path class="cls-13" d="M28.05,52.79c-.06,.17-.15,.33-.29,.45-.39,.36-.93,.47-1.46,.51,3.74,.79,8.24,2.11,10.45,3.46,.14,.08,.28,.17,.42,.23,.17,.07,.34,.11,.51,.07,.32-.07,.53-.35,.72-.61,.2-.28,.42-.56,.68-.77-2.61-1.41-7.72-2.75-11.04-3.33Z"/><path class="cls-16" d="M41.03,55.83c-.1,.05-.19,.11-.27,.18,.05,.05,.1,.11,.13,.18,.23,.44-.01,.97-.28,1.4-.47,.76-.99,1.64-1.78,2.11,.31,.16,.63,.3,.98,.35,1.07,.17,1.58-.95,1.99-1.75,.2-.38,.4-.76,.47-1.17,.15-.79-.3-1.76-1.25-1.3Z"/><g><path class="cls-2" d="M25.32,34.9c.14,.5,.81,1.19,.1,1.5"/><path class="cls-20" d="M23.2,35.4c.14-.07,.3-.12,.46-.15-.01-.12-.09-.23-.21-.26-.15-.05-.31,.04-.36,.2-.02,.09,0,.18,.04,.26,.02-.02,.05-.03,.07-.04Z"/><path class="cls-20" d="M26.41,34.71c.16-.02,.39-.06,.57-.03,0-.03,0-.05,0-.08-.03-.17-.18-.28-.34-.25-.16,.03-.26,.19-.23,.36h0Z"/><path class="cls-9" d="M22.34,34.34c.34-.49,1-.7,1.56-.49"/><path class="cls-9" d="M25.71,33.49c.38-.37,.99-.45,1.45-.19"/><path class="cls-5" d="M24.89,37.48c.34,.19,.8,.14,1.07-.13"/></g></g><g><path class="cls-11" d="M43.27,47.59c-.78,.9-1.23,2.1-1.14,3.29,.15,.12,.36,.13,.54,.08,.18-.05,.34-.16,.5-.27,.83-.57,1.57-1.14,2.52-1.47,.86-.3,1.7-.9,2.46-1.45-.3-.19-.57-.4-.83-.64-.48-.45-.89-.99-1.18-1.57-.91,.75-2.07,1.13-2.86,2.03Z"/><path class="cls-16" d="M58.22,31.77c-.37,.58-.71,1.17-1.04,1.77-.67,1.23-1.28,2.48-1.93,3.72-1.69,3.22-4.75,7.65-7.95,9.88,.25,.24,.53,.45,.83,.64,.14,.09,.29,.18,.44,.25,3.49-2.27,6.51-5.71,8.1-9.39,.66-1.53,1.13-3.15,1.88-4.62-.03-.28-.04-.57-.02-.85,.03-.82,.21-1.64,.39-2.44-.22,.36-.49,.69-.72,1.04Z"/><path class="cls-10" d="M54.29,58.79c.27,.54,.7,.95,1.22,1.25,.27,.16,.56,.29,.85,.37,.9,.27,1.78,.16,2.71,.14,6.63-.12,13.27-.3,19.89-.55-.01-.33-.01-.65,0-.98-1.63-.03-3.26,.01-4.87,.09-2.98,.15-5.95,.4-8.93,.52-1.5,.06-3.01,.09-4.51,.05-1.38-.04-2.71,.06-4.09-.16-.26-.04-.52-.09-.78-.14-.5-.11-1.01-.24-1.43-.55-.02-.01-.04-.03-.06-.05Z"/><path class="cls-10" d="M57.39,52.63c-.13-.1-.06-.31,.02-.45,.92-1.49,2.53-1.85,3.77-2.95,.17-.15,.33-.31,.5-.47,.51-.5,1.01-1.05,1.49-1.58,.05-.05,.1-.11,.14-.16,.38-.42,.64-.86,.89-1.33-.61,.32-1.22,.66-1.82,1h0c-3.27,1.87-6.43,4.04-8.96,6.8-.66,.72-1.29,1.5-1.63,2.41-.34,.91-.34,1.99,.2,2.81,.51,.75,1.41,1.17,2.32,1.29,.4,.05,.79,.06,1.19,.03-.51-.3-.95-.72-1.22-1.25h0s-.04-.08-.06-.12c-.67-1.51,.57-3.16,1.5-4.24,.55-.63,1.16-1.23,1.79-1.77-.05,0-.1-.01-.14-.04Z"/><path class="cls-11" d="M62,49.68c-.18-.45-.29-.8-.32-.93h0c-.17,.16-.33,.32-.5,.47-1.24,1.1-2.86,1.46-3.77,2.95-.09,.14-.15,.35-.02,.45,.04,.03,.09,.04,.14,.04h0c1.16-1,2.45-1.86,3.78-2.6,.23-.13,.46-.26,.69-.38Z"/><path class="cls-17" d="M63.11,18.11c-.19,1-.57,1.97-1.12,2.82-.4,.63-.94,1.23-1.67,1.43h-.01c.18,.41,.35,.83,.52,1.24,1.48-.85,2.22-2.47,2.7-4.09-.17-.46-.3-.94-.42-1.41Z"/><path class="cls-11" d="M61.31,50.07c-1.33,.75-2.62,1.6-3.78,2.6,.05,0,.1-.01,.15-.02,1.55-.32,3.22,0,4.68-.79,.22-.12,.44-.24,.65-.38-.47-.6-.8-1.27-1.01-1.8-.23,.12-.46,.25-.69,.38Z"/><path class="cls-12" d="M62.03,49.67c1.11-.59,2.26-1.12,3.41-1.62-.79-.18-1.56-.48-2.28-.87-.48,.53-.97,1.07-1.49,1.58h0c.04,.12,.14,.48,.32,.93h.02Z"/><path class="cls-16" d="M64.5,37.07c-1.39,.29-3.22,.46-4.51-.21,.25,.27,.52,.53,.78,.8,2.02,2.12,3.28,4.95,3.53,7.85,.11-.22,.23-.44,.35-.67,.98-1.78,1.68-3.71,2.14-5.69,.53-2.26,.75-4.57,.79-6.89-.32,2.13-.88,4.35-3.08,4.81Z"/><path class="cls-12" d="M59.99,36.86c1.29,.67,3.12,.5,4.51,.21,2.19-.46,2.76-2.68,3.08-4.81-.04,2.32-.26,4.63-.79,6.89-.46,1.98-1.16,3.91-2.14,5.69-.13,.23-.24,.45-.35,.67h0s0,.08,.01,.12h0s-.07,.04-.11,.06c-.25,.46-.51,.91-.89,1.33-.05,.05-.1,.11-.14,.16,.71,.39,1.48,.68,2.28,.87,.01,0,.03-.01,.04-.02,.02,.01,.04,.03,.06,.04h.06c.5,.12,.98,.16,1.45,.15,.67-.71,1.29-1.47,1.83-2.25,1.3-1.88,2.28-3.98,2.83-6.19,.66-2.64,1.24-5.32,1.33-8.05,.04-1.21-.03-2.59-.41-3.84-.28-.91-.71-1.76-1.39-2.42-.43-.42-.96-.72-1.48-1.01-.89-.49-1.77-.99-2.66-1.48-.28-.16-.6-.3-.93-.46h0c-.44,2.29-1.89,4.38-3.89,5.6-.38-1.49-.85-2.96-1.41-4.4-1.66,.54-3.22,1.47-4.22,2.88-1.18,1.67-1.45,3.78-1.87,5.77-.67,3.19-2.13,6.23-4.2,8.75-1.32,1.61-2.78,2.98-4.34,4.35-.04,.03-.07,.06-.11,.09,.29,.59,.69,1.12,1.18,1.57,3.2-2.22,6.26-6.65,7.95-9.88,.65-1.24,1.26-2.5,1.93-3.72,.33-.6,.67-1.19,1.04-1.77,.22-.35,.5-.68,.72-1.04-.18,.81-.36,1.62-.39,2.44-.01,.28,0,.57,.02,.85,.05,.55,.19,1.09,.45,1.58,.25,.47,.6,.88,.97,1.26Z"/><path class="cls-11" d="M63.51,13.69c-.33-.35-1.07-.4-1.48-.21-.44,.21-.72,.7-.68,1.18,.01,.17,.07,.35,.04,.52-.03,.17-.19,.34-.36,.3-.1-.02-.17-.11-.23-.2-.32-.46-.59-.95-.79-1.47-.2-.52-.35-1.1-.73-1.52-.4-.45-1.02-.66-1.62-.68-.6-.02-1.2,.15-1.76,.37-.55,.21-1.1,.49-1.49,.93-.1,.12-.19,.24-.26,.38,.14,1.04,.39,2.07,.72,3.07,.48,1.42,1.15,2.77,1.99,4.02,.4,.59,.84,1.16,1.42,1.56,.58,.4,1.33,.61,2.01,.43h.01c.73-.2,1.27-.8,1.67-1.43,.55-.86,.93-1.82,1.12-2.82,.07-.38,.12-.77,.13-1.16,.03-.63,.28-1.04,.39-1.66,.08-.44,.21-1.23-.13-1.6Z"/><path class="cls-11" d="M63.53,19.52c-.48,1.61-1.23,3.24-2.7,4.09,.02,.04,.03,.08,.05,.11,.56,1.44,1.03,2.91,1.41,4.4,2-1.23,3.44-3.32,3.89-5.6-.51-.25-1.03-.53-1.38-.89-.59-.61-.98-1.34-1.26-2.11Z"/><path class="cls-21" d="M64.38,15.15c-.18-.55-.47-1.05-.85-1.49l-.03,.03c.34,.37,.21,1.16,.13,1.6-.11,.62-.37,1.03-.39,1.66-.01,.39-.06,.78-.13,1.16,.11,.48,.24,.95,.42,1.41,.08-.25,.14-.5,.21-.75,.24-.93,.59-1.84,.76-2.79,.02-.08,.03-.17,.04-.25-.05-.2-.1-.39-.16-.58Z"/><path class="cls-21" d="M61.03,15.47c.17,.04,.33-.13,.36-.3,.03-.17-.03-.35-.04-.52-.04-.48,.24-.97,.68-1.18,.4-.19,1.15-.14,1.48,.21l.03-.03c.38,.44,.67,.95,.85,1.49,.06,.19,.11,.38,.16,.58,.27-1.63,.19-3.34-.56-4.85-.22-.45-.5-.87-.83-1.23-.61-.69-1.39-1.22-2.3-1.51-.65-.21-1.09-.41-1.8-.35-.82,.07-1.63,.3-2.38,.64-1.9,.85-3.23,2.52-3.18,4.67,.03,1.2,.54,2.38,1.37,3.25-.34-1-.58-2.03-.72-3.07,.07-.14,.16-.26,.26-.38,.39-.44,.94-.72,1.49-.93,.56-.22,1.15-.38,1.76-.37,.6,.02,1.22,.23,1.62,.68,.38,.42,.53,.99,.73,1.52,.2,.52,.47,1.02,.79,1.47,.06,.08,.13,.17,.23,.2Z"/><path class="cls-23" d="M63.99,10.89c.74,1.5,.82,3.22,.56,4.85,.24,.94,.43,1.94,1.26,2.38,.77,.4,1.73,.09,2.56,.32,.89,.25,1.49,1.08,1.81,1.93,.33,.85,.46,1.77,.8,2.61,.34,.85,.96,1.67,1.85,1.89,.73,.18,1.5-.06,2.17-.39,.68-.32,1.32-.73,2.06-.9,.73-.17,1.6-.04,2.06,.55,.23,.29,.33,.65,.47,.98,.67,1.49,2.42,2.38,4.05,2.16,1.63-.21,3.05-1.45,3.59-2.98,.55-1.54,.26-3.31-.64-4.67-.9-1.37-2.36-2.33-3.94-2.76-1.59-.43-3.29-.34-4.87,.1-.79,.22-1.57,.54-2.39,.62-.82,.08-1.73-.13-2.24-.77-.57-.71-.5-1.71-.64-2.61-.33-2.07-1.99-3.79-3.98-4.51-1.71-.62-3.6-.55-5.35-.04,.33,.37,.6,.78,.83,1.23Z"/><path class="cls-12" d="M62,49.68c.22,.53,.55,1.2,1.01,1.8,.04-.02,.07-.04,.1-.06,1.28-.78,2.47-1.73,3.54-2.8,.04-.04,.08-.08,.12-.12,.01-.01,.02-.02,.03-.04,.04-.04,.07-.07,.11-.11,.01-.01,.02-.02,.03-.03,.02-.02,.04-.04,.06-.06h.01l.02-.03c-.47,.01-.95-.04-1.45-.14h-.06s-.07-.03-.1-.04c-1.16,.5-2.3,1.03-3.41,1.62h-.02Z"/><path class="cls-18" d="M75.1,46.84c-1.5,.24-2.87,.93-4.3,1.43-.31,.11-.61,.19-.91,.24-.95,.16-1.83,.03-2.85-.29h0l-.02,.02h-.01s-.04,.05-.06,.07c-.01,.01-.02,.02-.03,.03-.03,.04-.07,.07-.11,.11-.01,.01-.02,.02-.03,.04-.04,.04-.08,.08-.12,.12-1.07,1.07-2.27,2.02-3.54,2.8-.03,.02-.07,.04-.1,.06-.22,.13-.43,.26-.65,.38-1.46,.8-3.13,.47-4.68,.79-.05,.01-.1,.02-.15,.02h0c-.64,.54-1.24,1.13-1.79,1.77-.94,1.08-2.18,2.73-1.5,4.24,.02,.04,.04,.08,.06,.12h0s.04,.03,.06,.05c.42,.3,.93,.44,1.43,.55,.26,.06,.52,.1,.78,.14,1.38,.22,2.71,.13,4.09,.16,1.5,.04,3.01,.01,4.51-.05,2.98-.12,5.95-.38,8.93-.52,1.62-.08,3.25-.12,4.87-.09,.02-.8,.1-1.61,.25-2.4-.17-.03-.33-.07-.49-.11-1.05-.26-2.1-.56-3.14-.83-1.38-.37-2.77-.69-4.18-.86-.13-.01-.26-.03-.39-.04-1.76-.17-3.59-.04-5.25,.55-.73,.18-1.45,.44-2.18,.72-.69,.26-1.48,.65-2.22,.72-.91,.08-.44-.68-.06-1.07,.72-.73,1.64-1.02,2.59-1.31,1.18-.36,2.41-.55,3.64-.57,1.23-.01,2.39,.32,3.6,.48,.1,.01,.21,.03,.32,.04,1.75,.17,3.58-.11,5.06-1.09,1-.66,1.81-1.68,2.21-2.82,0-.84-.14-1.69-.29-2.52-.05-.28-.1-.56-.15-.84-1.02-.3-2.11-.38-3.17-.22Z"/><path class="cls-10" d="M70.03,47.52c-1.01,.42-1.97,.68-2.98,.7,1.01,.32,1.89,.45,2.85,.29l-.04-.23c.22-.31,.43-.63,.63-.96-.15,.07-.3,.13-.45,.2Z"/><path class="cls-10" d="M74.04,45.72c-1.22,.44-2.36,1.07-3.55,1.6h0c-.2,.33-.41,.65-.63,.96l.04,.23c.29-.05,.6-.13,.91-.24,1.43-.5,2.8-1.19,4.3-1.43,1.06-.16,2.15-.08,3.17,.22-.12-.69-.25-1.38-.38-2.07-1.31,.03-2.62,.28-3.85,.73Z"/><path class="cls-10" d="M63.89,54.39c-.95,.29-1.87,.58-2.59,1.31-.38,.39-.85,1.15,.06,1.07,.74-.06,1.53-.45,2.22-.72,.73-.28,1.45-.54,2.18-.72,1.65-.59,3.49-.72,5.25-.55,.13,.01,.26,.03,.39,.04l.05-.49c-.11-.01-.21-.02-.32-.04-1.22-.16-2.37-.49-3.6-.48-1.23,.01-2.46,.21-3.64,.57Z"/><path class="cls-12" d="M73.17,39.58c-.42,2.71-1.26,5.4-2.68,7.75,1.19-.53,2.33-1.16,3.55-1.6,1.23-.45,2.54-.69,3.85-.73-.99-5.11-2.25-10.18-4.26-14.92,.04,3.04-.06,6.95-.46,9.5Z"/><path class="cls-10" d="M78.71,50.43c-.4,1.15-1.21,2.16-2.21,2.82-1.48,.98-3.3,1.26-5.06,1.09l-.05,.49c1.41,.17,2.8,.49,4.18,.86,.81-.56,1.58-1.2,2.14-1.97,.31-.42,.56-.88,.73-1.4,.2-.61,.27-1.24,.26-1.89Z"/><path class="cls-16" d="M73.17,39.58c.4-2.55,.5-6.46,.46-9.5-.31-.74-.64-1.47-.99-2.19,.38,1.25,.45,2.63,.41,3.84-.09,2.73-.67,5.41-1.33,8.05-.55,2.21-1.52,4.31-2.83,6.19-.55,.79-1.16,1.54-1.83,2.25h0c1.01-.02,1.97-.28,2.98-.7,.15-.06,.3-.13,.45-.2h0c1.42-2.35,2.25-5.04,2.68-7.75Z"/><path class="cls-17" d="M75.58,55.68c1.05,.27,2.1,.57,3.14,.83,.16,.04,.33,.08,.49,.11,.28,.06,.57,.09,.85,.07,.45-.04,.91-.23,1.17-.62,.34-.51,.31-1.3,.83-1.61,.34-.2,.79-.09,1.11,.14,.53,.38,.52,.97,.88,1.49,.33,.49,.76,.79,1.23,1.01l4.84,.6c-.25-.78-.85-1.56-1.46-1.96-1.88-.83-4.18-.83-5.64-2.69-.42-.62-.63-1.86-1.46-1.45-.42,.21-.63,.41-.84,.83-.41,1.41-1.8,1.64-3.02,1.25-.56,.77-1.33,1.41-2.14,1.97Z"/><path class="cls-11" d="M78.96,59.03c0,.33,0,.65,0,.98h0c2.32-.09,4.64-.18,6.96-.29-2.28-.46-4.62-.66-6.96-.69Z"/><path class="cls-11" d="M81.23,56.08c-.26,.38-.72,.58-1.17,.62-.28,.02-.57-.01-.85-.07-.15,.79-.23,1.59-.25,2.4,2.34,.04,4.68,.23,6.96,.69h0c1.5-.06,3-.13,4.5-.21-.42-.59-1.03-1.06-1.68-1.37-1.07-.51-2.39-.53-3.46-1.02-.48-.22-.9-.52-1.23-1.01-.36-.52-.35-1.11-.88-1.49-.32-.24-.77-.35-1.11-.14-.52,.31-.49,1.1-.83,1.61Z"/><g><path class="cls-20" d="M58.93,15.82c.14,.1,.34,.07,.45-.06,.11-.13,.08-.32-.06-.42-.14-.1-.34-.07-.45,.06-.11,.13-.08,.32,.05,.42Z"/><path class="cls-20" d="M55.65,16.77c.07,.15,.26,.21,.42,.13s.23-.25,.15-.4c-.07-.15-.26-.21-.42-.14-.16,.07-.23,.25-.15,.4Z"/><path class="cls-3" d="M57.06,15.98c.27,.61,.38,1.28,.31,1.93-.01,.14-.03,.29,.04,.42,.12,.21,.44,.24,.7,.24"/><path class="cls-6" d="M59.91,19.42c-.41,.6-1.22,.96-1.92,.84"/><path class="cls-7" d="M59.67,13.79c-.66-.03-1.32,.15-1.86,.53"/><path class="cls-7" d="M56.1,15.04c-.66-.03-1.32,.15-1.86,.53"/></g></g></g></g></svg>